<svg width="512" height="512" viewBox="0 0 512 512" fill="none" xmlns="http://www.w3.org/2000/svg">
  <defs>
    <linearGradient id="bg" x1="0" y1="0" x2="1" y2="1">
      <stop offset="0%" stop-color="#1D4ED8" />
      <stop offset="100%" stop-color="#0EA5E9" />
    </linearGradient>
  </defs>
  <rect x="20" y="20" width="472" height="472" rx="108" fill="url(#bg)" />
  <g transform="translate(256,186)">
    <ellipse cx="0" cy="-62" rx="24" ry="42" fill="#F8FAFC" />
    <ellipse cx="44" cy="-44" rx="24" ry="42" transform="rotate(45)" fill="#F8FAFC" />
    <ellipse cx="62" cy="0" rx="24" ry="42" transform="rotate(90)" fill="#F8FAFC" />
    <ellipse cx="44" cy="44" rx="24" ry="42" transform="rotate(135)" fill="#F8FAFC" />
    <ellipse cx="0" cy="62" rx="24" ry="42" fill="#F8FAFC" />
    <ellipse cx="-44" cy="44" rx="24" ry="42" transform="rotate(45)" fill="#F8FAFC" />
    <ellipse cx="-62" cy="0" rx="24" ry="42" transform="rotate(90)" fill="#F8FAFC" />
    <ellipse cx="-44" cy="-44" rx="24" ry="42" transform="rotate(135)" fill="#F8FAFC" />
    <circle cx="0" cy="0" r="30" fill="#FACC15" />
    <path d="M-8 -10H4C14 -10 22 -2 22 8C22 18 14 26 4 26H-8V-10ZM4 14C7 14 10 11 10 8C10 5 7 2 4 2H4V14Z" fill="#1E3A8A" />
  </g>
  <text x="256" y="360" text-anchor="middle" fill="#F8FAFC" font-size="64" font-family="Arial, Helvetica, sans-serif" font-weight="700" letter-spacing="4">DAISY</text>
</svg>
