<svg width="256" height="256" viewBox="0 0 256 256" fill="none" xmlns="http://www.w3.org/2000/svg">
  <defs>
    <linearGradient id="dasGradient" x1="0" y1="0" x2="1" y2="1">
      <stop offset="0%" stop-color="#2563eb"/>
      <stop offset="100%" stop-color="#22d3ee"/>
    </linearGradient>
  </defs>
  <rect x="16" y="16" width="224" height="224" rx="48" fill="url(#dasGradient)"/>
  <path d="M78 168V88h38c18 0 30 12 30 28 0 16-12 28-30 28H98v24H78zm20-44h18c6 0 10-4 10-8s-4-8-10-8H98v16z" fill="white"/>
  <path d="M142 168V88h32c26 0 44 16 44 40s-18 40-44 40h-32zm20-20h12c14 0 24-8 24-20s-10-20-24-20h-12v40z" fill="white"/>
</svg>
